<svg version="1.1" xmlns="http://www.w3.org/2000/svg" xmlns:xlink="http://www.w3.org/1999/xlink" width="48" height="48"><defs><linearGradient x1="15.09784" y1="16.08697" x2="58.67372" y2="57.6846" gradientUnits="userSpaceOnUse" id="color-1"><stop offset="0.59" stop-color="#000000" stop-opacity="0.34"></stop><stop offset="1" stop-color="#000000" stop-opacity="0"></stop></linearGradient><filter id="dropshadow-base"><feColorMatrix type="matrix" values="0 0 0 0 0  0 0 0 0 0  0 0 0 0 0  0 0 0 .8 0"></feColorMatrix> <feOffset dx="0" dy="1"></feOffset> <feGaussianBlur stdDeviation="1"></feGaussianBlur> <feComposite in="SourceGraphic"></feComposite></filter><filter id="dropshadow-banner" x="-10%" y="-10%" width="120%" height="130%"><feColorMatrix type="matrix" values="0 0 0 0 0  0 0 0 0 0  0 0 0 0 0  0 0 0 .4 0"></feColorMatrix> <feOffset dx="0" dy="1"></feOffset> <feGaussianBlur stdDeviation="0.5"></feGaussianBlur> <feComposite in="SourceGraphic"></feComposite></filter></defs><g fill="none" fill-rule="nonzero" stroke="none" stroke-width="none" stroke-linecap="butt" stroke-linejoin="miter" stroke-miterlimit="10" stroke-dasharray="" stroke-dashoffset="0" font-family="none" font-weight="none" font-size="none" text-anchor="none" style="mix-blend-mode: normal"><path d="M4,40c-1.10457,0 -2,-0.89543 -2,-2v-28c0,-1.10457 0.89543,-2 2,-2h40c1.10457,0 2,0.89543 2,2v28c0,1.10457 -0.89543,2 -2,2z" id="base 1 5 1" fill="#461cad" stroke-width="1"></path><path d="M15.3884,31.62247c0,0 0,0 0,0c-0.17928,-0.17928 -0.29056,-0.42656 -0.29056,-0.69857v-7.91303l2.05739,-5.92489c0.20277,-0.58358 0.75668,-0.99902 1.40456,-0.99902h10.88041c0.40949,0 0.78144,0.16596 1.05092,0.43543l15.50887,15.50887v5.96872c0,1.10457 -0.89543,2 -2,2h-20.23408z" fill="url(#color-1)" stroke-width="1"></path><path d="M30.84477,17.08599c-0.20277,-0.58359 -0.75668,-0.99902 -1.40456,-0.99902h-10.88042c-0.64788,0 -1.20179,0.41543 -1.40456,0.99902l-2.05739,5.92488v7.91303c0,0.54402 0.44511,0.98913 0.98913,0.98913h0.98913c0.54897,0 0.98913,-0.44511 0.98913,-0.98913v-0.98913h11.86955v0.98913c0,0.54402 0.44511,0.98913 0.98913,0.98913h0.98913c0.54897,0 0.98913,-0.44511 0.98913,-0.98913v-7.91303zM18.55979,26.96739c-0.82098,0 -1.48369,-0.66272 -1.48369,-1.48369c0,-0.82098 0.66272,-1.48369 1.48369,-1.48369c0.82098,0 1.48369,0.66272 1.48369,1.48369c0,0.82098 -0.66272,1.48369 -1.48369,1.48369zM29.44021,26.96739c-0.82098,0 -1.48369,-0.66272 -1.48369,-1.48369c0,-0.82098 0.66272,-1.48369 1.48369,-1.48369c0.82098,0 1.48369,0.66272 1.48369,1.48369c0,0.82098 -0.66272,1.48369 -1.48369,1.48369zM17.0761,22.02174l1.48369,-4.45108h10.88042l1.48369,4.45108z" fill="none" stroke-width="0"></path><path d="M32.90216,23.01087v7.91303c0,0.54402 -0.44016,0.98913 -0.98913,0.98913h-0.98913c-0.54402,0 -0.98913,-0.44511 -0.98913,-0.98913v-0.98913h-11.86955v0.98913c0,0.54402 -0.44016,0.98913 -0.98913,0.98913h-0.98913c-0.54402,0 -0.98913,-0.44511 -0.98913,-0.98913v-7.91303l2.05739,-5.92488c0.20277,-0.58359 0.75668,-0.99902 1.40456,-0.99902h10.88042c0.64788,0 1.20179,0.41543 1.40456,0.99902zM20.04348,25.48369c0,-0.82098 -0.66272,-1.48369 -1.48369,-1.48369c-0.82098,0 -1.48369,0.66272 -1.48369,1.48369c0,0.82098 0.66272,1.48369 1.48369,1.48369c0.82098,0 1.48369,-0.66272 1.48369,-1.48369zM30.9239,25.48369c0,-0.82098 -0.66272,-1.48369 -1.48369,-1.48369c-0.82098,0 -1.48369,0.66272 -1.48369,1.48369c0,0.82098 0.66272,1.48369 1.48369,1.48369c0.82098,0 1.48369,-0.66272 1.48369,-1.48369zM30.9239,22.02174l-1.48369,-4.45108h-10.88042l-1.48369,4.45108z" fill="#ffffff" stroke-width="0"></path><path d="M2,24c0,-12.15026 9.84974,-22 22,-22c12.15026,0 22,9.84974 22,22c0,12.15026 -9.84974,22 -22,22c-12.15026,0 -22,-9.84974 -22,-22z" id="base 1 1 1" fill="none" stroke-width="1"></path><g fill="#000000" stroke-width="1" font-family="Roboto, sans-serif" font-weight="normal" font-size="14" text-anchor="start"></g><rect x="2" y="2" width="44" height="22" fill="none" stroke-width="1"></rect><path d="M2,24v-22h44v22z" fill="none" stroke-width="1"></path><path d="M2,24v-22h44v22z" fill="none" stroke-width="1"></path><path d="M2,24v-22h44v22z" fill="none" stroke-width="1"></path><path d="M2,24v-22h44v22z" fill="none" stroke-width="1"></path></g></svg>